<?xml version="1.0" encoding="UTF-8" standalone="no"?>
<!-- Created with Inkscape (http://www.inkscape.org/) -->

<svg
   xmlns:dc="http://purl.org/dc/elements/1.1/"
   xmlns:cc="http://creativecommons.org/ns#"
   xmlns:rdf="http://www.w3.org/1999/02/22-rdf-syntax-ns#"
   xmlns:svg="http://www.w3.org/2000/svg"
   xmlns="http://www.w3.org/2000/svg"
   xmlns:sodipodi="http://sodipodi.sourceforge.net/DTD/sodipodi-0.dtd"
   xmlns:inkscape="http://www.inkscape.org/namespaces/inkscape"
   width="1500.64"
   height="510.78"
   id="svg4712"
   version="1.1"
   inkscape:version="0.48.4 r9939"
   sodipodi:docname="Emotion-98.3-Logo.svg">
  <defs
     id="defs4714" />
  <sodipodi:namedview
     id="base"
     pagecolor="#ffffff"
     bordercolor="#666666"
     borderopacity="1.0"
     inkscape:pageopacity="0.0"
     inkscape:pageshadow="2"
     inkscape:zoom="1.0400349"
     inkscape:cx="750.32"
     inkscape:cy="255.39"
     inkscape:document-units="px"
     inkscape:current-layer="layer1"
     showgrid="false"
     fit-margin-top="0"
     fit-margin-left="0"
     fit-margin-right="0"
     fit-margin-bottom="0"
     inkscape:window-width="1680"
     inkscape:window-height="990"
     inkscape:window-x="-4"
     inkscape:window-y="-4"
     inkscape:window-maximized="1" />
  <metadata
     id="metadata4717">
    <rdf:RDF>
      <cc:Work
         rdf:about="">
        <dc:format>image/svg+xml</dc:format>
        <dc:type
           rdf:resource="http://purl.org/dc/dcmitype/StillImage" />
        <dc:title />
      </cc:Work>
    </rdf:RDF>
  </metadata>
  <g
     inkscape:label="Ebene 1"
     inkscape:groupmode="layer"
     id="layer1"
     transform="translate(-112.85273,-18.213369)">
    <g
       id="g676"
       transform="matrix(10.008984,0,0,-10.098673,258.41342,181.82782)"
       style="fill:#000000">
      <path
         inkscape:connector-curvature="0"
         d="M 0,0 C -0.487,2.696 -1.648,4.12 -4.233,4.12 -7.604,4.12 -8.576,1.499 -8.651,0 L 0,0 z m -8.651,-3.372 c 0.15,-3.369 1.796,-4.904 4.758,-4.904 2.133,0 3.858,1.31 4.195,2.509 l 4.681,0 c -1.501,-4.57 -4.681,-6.518 -9.064,-6.518 -6.106,0 -9.89,4.194 -9.89,10.187 0,5.805 4.009,10.225 9.89,10.225 6.591,0 9.775,-5.542 9.399,-11.499 l -13.969,0 z"
         style="fill:#000000;fill-opacity:1;fill-rule:nonzero;stroke:none"
         id="path678" />
    </g>
    <g
       id="g680"
       transform="matrix(10.008984,0,0,-10.098673,258.41342,181.82782)">
      <path
         inkscape:connector-curvature="0"
         d="M 0,0 C -0.487,2.696 -1.648,4.12 -4.233,4.12 -7.604,4.12 -8.576,1.499 -8.651,0 L 0,0 z m -8.651,-3.372 c 0.15,-3.369 1.796,-4.904 4.758,-4.904 2.133,0 3.858,1.31 4.195,2.509 l 4.681,0 c -1.501,-4.57 -4.681,-6.518 -9.064,-6.518 -6.106,0 -9.89,4.194 -9.89,10.187 0,5.805 4.009,10.225 9.89,10.225 6.591,0 9.775,-5.542 9.399,-11.499 l -13.969,0 z"
         style="fill:none;stroke:#231f20;stroke-width:0.1138881;stroke-linecap:round;stroke-linejoin:round;stroke-miterlimit:4;stroke-opacity:1;stroke-dasharray:none"
         id="path682" />
    </g>
    <g
       id="g684"
       transform="matrix(10.008984,0,0,-10.098673,954.8465,101.52018)"
       style="fill:#000000">
      <path
         inkscape:connector-curvature="0"
         d="m 0,0 4.284,0 0,-3.915 -4.284,0 0,-10.543 c 0,-1.978 0.495,-2.473 2.472,-2.473 0.619,0 1.195,0.041 1.812,0.166 l 0,-4.577 c -0.987,-0.162 -2.263,-0.204 -3.417,-0.204 -3.585,0 -6.717,0.824 -6.717,5.07 l 0,12.561 -3.543,0 0,3.915 3.543,0 0,6.388 5.85,0 L 0,0 z"
         style="fill:#000000;fill-opacity:1;fill-rule:nonzero;stroke:none"
         id="path686" />
    </g>
    <g
       id="g688"
       transform="matrix(10.008984,0,0,-10.098673,954.8465,101.52018)">
      <path
         inkscape:connector-curvature="0"
         d="m 0,0 4.284,0 0,-3.915 -4.284,0 0,-10.543 c 0,-1.978 0.495,-2.473 2.472,-2.473 0.619,0 1.195,0.041 1.812,0.166 l 0,-4.577 c -0.987,-0.162 -2.263,-0.204 -3.417,-0.204 -3.585,0 -6.717,0.824 -6.717,5.07 l 0,12.561 -3.543,0 0,3.915 3.543,0 0,6.388 5.85,0 L 0,0 z"
         style="fill:none;stroke:#231f20;stroke-width:0.1138881;stroke-linecap:round;stroke-linejoin:round;stroke-miterlimit:4;stroke-opacity:1;stroke-dasharray:none"
         id="path690" />
    </g>
    <path
       inkscape:connector-curvature="0"
       d="m 1048.6947,104.77702 57.8419,0 0,212.43569 -57.8419,0 0,-212.43569 z m 57.8419,-32.861087 -57.8419,0 0,-48.069686 57.8419,0 0,48.069686 z"
       style="fill:#000000;fill-opacity:1;fill-rule:nonzero;stroke:#231f20;stroke-width:1.14499997999999990;stroke-linecap:round;stroke-linejoin:round;stroke-miterlimit:4;stroke-opacity:1;stroke-dasharray:none"
       id="path692" />
    <g
       id="g694"
       transform="matrix(10.008984,0,0,-10.098673,1253.7877,275.24677)">
      <path
         inkscape:connector-curvature="0"
         d="m 0,0 c 3.748,0 4.868,3.208 4.868,6.375 0,3.206 -1.12,6.412 -4.868,6.412 -3.707,0 -4.826,-3.206 -4.826,-6.412 C -4.826,3.208 -3.707,0 0,0 M 0,16.92 C 6.297,16.92 10.353,12.748 10.353,6.375 10.353,0.038 6.297,-4.133 0,-4.133 c -6.255,0 -10.311,4.171 -10.311,10.508 0,6.373 4.056,10.545 10.311,10.545"
         style="fill:#b7202c;fill-opacity:1;fill-rule:nonzero;stroke:none"
         id="path696" />
    </g>
    <g
       id="g698"
       transform="matrix(10.008984,0,0,-10.098673,1253.7877,275.24677)">
      <path
         inkscape:connector-curvature="0"
         d="m 0,0 c 3.748,0 4.868,3.208 4.868,6.375 0,3.206 -1.12,6.412 -4.868,6.412 -3.707,0 -4.826,-3.206 -4.826,-6.412 C -4.826,3.208 -3.707,0 0,0 z M 0,16.92 C 6.297,16.92 10.353,12.748 10.353,6.375 10.353,0.038 6.297,-4.133 0,-4.133 c -6.255,0 -10.311,4.171 -10.311,10.508 0,6.373 4.056,10.545 10.311,10.545 z"
         style="fill:none;stroke:#b7202c;stroke-width:0.1138881;stroke-linecap:round;stroke-linejoin:round;stroke-miterlimit:4;stroke-opacity:1;stroke-dasharray:none"
         id="path700" />
    </g>
    <g
       id="g702"
       transform="matrix(10.008984,0,0,-10.098673,1386.3558,105.49606)">
      <path
         inkscape:connector-curvature="0"
         d="m 0,0 5.98,0 0,-2.919 0.132,0 c 1.593,2.353 4.339,3.487 6.997,3.487 6.687,0 8.371,-3.446 8.371,-8.639 l 0,-12.894 -6.289,0 0,11.842 c 0,3.446 -1.106,5.15 -4.03,5.15 -3.411,0 -4.872,-1.744 -4.872,-6.002 l 0,-10.99 -6.289,0 L 0,0 z"
         style="fill:#b7202c;fill-opacity:1;fill-rule:nonzero;stroke:none"
         id="path704" />
    </g>
    <g
       id="g706"
       transform="matrix(10.008984,0,0,-10.098673,1386.3558,105.49606)">
      <path
         inkscape:connector-curvature="0"
         d="m 0,0 5.98,0 0,-2.919 0.132,0 c 1.593,2.353 4.339,3.487 6.997,3.487 6.687,0 8.371,-3.446 8.371,-8.639 l 0,-12.894 -6.289,0 0,11.842 c 0,3.446 -1.106,5.15 -4.03,5.15 -3.411,0 -4.872,-1.744 -4.872,-6.002 l 0,-10.99 -6.289,0 L 0,0 z"
         style="fill:none;stroke:#b7202c;stroke-width:0.10829315;stroke-linecap:round;stroke-linejoin:round;stroke-miterlimit:4;stroke-opacity:1;stroke-dasharray:none"
         id="path708" />
    </g>
    <g
       id="g710"
       transform="matrix(10.008984,0,0,-10.098673,744.86515,273.58436)"
       style="fill:#000000">
      <path
         inkscape:connector-curvature="0"
         d="M 0,0 C 3.744,0 4.866,3.207 4.866,6.376 4.866,9.58 3.744,12.787 0,12.787 -3.711,12.787 -4.828,9.58 -4.828,6.376 -4.828,3.207 -3.711,0 0,0 m 0,16.92 c 6.295,0 10.353,-4.173 10.353,-10.544 0,-6.337 -4.058,-10.51 -10.353,-10.51 -6.258,0 -10.315,4.173 -10.315,10.51 0,6.371 4.057,10.544 10.315,10.544"
         style="fill:#000000;fill-opacity:1;fill-rule:nonzero;stroke:none"
         id="path712" />
    </g>
    <g
       id="g714"
       transform="matrix(10.008984,0,0,-10.098673,744.86515,273.58436)">
      <path
         inkscape:connector-curvature="0"
         d="M 0,0 C 3.744,0 4.866,3.207 4.866,6.376 4.866,9.58 3.744,12.787 0,12.787 -3.711,12.787 -4.828,9.58 -4.828,6.376 -4.828,3.207 -3.711,0 0,0 z m 0,16.92 c 6.295,0 10.353,-4.173 10.353,-10.544 0,-6.337 -4.058,-10.51 -10.353,-10.51 -6.258,0 -10.315,4.173 -10.315,10.51 0,6.371 4.057,10.544 10.315,10.544 z"
         style="fill:none;stroke:#231f20;stroke-width:0.1138881;stroke-linecap:round;stroke-linejoin:round;stroke-miterlimit:4;stroke-opacity:1;stroke-dasharray:none"
         id="path716" />
    </g>
    <g
       id="g720"
       transform="matrix(10.008984,0,0,-10.098673,374.54261,411.69285)">
      <path
         inkscape:connector-curvature="0"
         d="m 0,0 c 0,0 -2.34,2.342 -3.201,3.512 -0.866,1.171 -2.587,3.82 -3.082,4.619 -0.493,0.802 -1.599,3.141 -1.599,3.141 l -0.802,2.28 -0.432,1.91 -0.061,3.325 0.061,2.833 0.306,1.787 0.802,2.523 1.109,2.218 1.539,2.033 1.605,1.663 1.847,1.418 1.475,0.739 0.925,0.184 1.478,0 1.54,-0.184 1.047,-0.618 0.802,-0.798 1.169,-1.419 0.738,-1.107 0.495,-0.926 0.06,-0.306 0.432,0.123 1.603,2.155 1.847,1.786 1.724,1.477 2.031,1.295 1.787,0.863 1.848,0.431 1.908,0.061 1.542,-0.061 1.601,-0.554 1.11,-0.802 1.54,-1.477 1.046,-1.971 0.86,-1.725 0.617,-2.093 0.245,-2.465 0.127,-3.88 -0.31,-3.881 L 28.762,15.707 27.531,12.319 25.56,8.501 23.713,5.606 20.696,1.665 18.168,-1.231 15.52,-3.817 12.441,-6.528 10.164,-8.066 8.009,-9.299 l -3.144,-1.787 3.016,2.527 2.713,2.154 2.154,2.218 1.972,2.526 1.847,2.525 2.159,3.756 1.475,3.202 1.603,3.389 1.047,3.45 0.49,2.833 0,3.079 -0.182,3.265 -0.616,2.217 -0.925,1.909 -1.725,1.417 -1.476,0.432 -0.986,0 L 16.567,29.75 15.642,29.32 14.227,28.703 11.517,26.177 9.61,23.652 7.944,20.756 6.652,17.802 6.16,16.754 4.127,18.17 4.494,20.819 4.434,23.467 4.127,25.93 3.08,27.596 1.907,28.335 0.678,28.64 -0.861,28.148 -1.971,27.349 -3.389,25.438 -4.377,23.467 -5.114,20.697 -5.36,17.309 -5.114,14.352 -4.621,11.95 -3.755,8.871 -2.402,5.175 -1.047,2.588 -0.061,0.74 0.614,-0.43 0,0 z"
         style="fill:#b7202c;fill-opacity:1;fill-rule:nonzero;stroke:none"
         id="path722" />
    </g>
    <g
       id="g724"
       transform="matrix(10.008984,0,0,-10.098673,374.54261,411.69285)">
      <path
         inkscape:connector-curvature="0"
         d="m 0,0 c 0,0 -2.34,2.342 -3.201,3.512 -0.866,1.171 -2.587,3.82 -3.082,4.619 -0.493,0.802 -1.599,3.141 -1.599,3.141 l -0.802,2.28 -0.432,1.91 -0.061,3.325 0.061,2.833 0.306,1.787 0.802,2.523 1.109,2.218 1.539,2.033 1.605,1.663 1.847,1.418 1.475,0.739 0.925,0.184 1.478,0 1.54,-0.184 1.047,-0.618 0.802,-0.798 1.169,-1.419 0.738,-1.107 0.495,-0.926 0.06,-0.306 0.432,0.123 1.603,2.155 1.847,1.786 1.724,1.477 2.031,1.295 1.787,0.863 1.848,0.431 1.908,0.061 1.542,-0.061 1.601,-0.554 1.11,-0.802 1.54,-1.477 1.046,-1.971 0.86,-1.725 0.617,-2.093 0.245,-2.465 0.127,-3.88 -0.31,-3.881 L 28.762,15.707 27.531,12.319 25.56,8.501 23.713,5.606 20.696,1.665 18.168,-1.231 15.52,-3.817 12.441,-6.528 10.164,-8.066 8.009,-9.299 l -3.144,-1.787 3.016,2.527 2.713,2.154 2.154,2.218 1.972,2.526 1.847,2.525 2.159,3.756 1.475,3.202 1.603,3.389 1.047,3.45 0.49,2.833 0,3.079 -0.182,3.265 -0.616,2.217 -0.925,1.909 -1.725,1.417 -1.476,0.432 -0.986,0 L 16.567,29.75 15.642,29.32 14.227,28.703 11.517,26.177 9.61,23.652 7.944,20.756 6.652,17.802 6.16,16.754 4.127,18.17 4.494,20.819 4.434,23.467 4.127,25.93 3.08,27.596 1.907,28.335 0.678,28.64 -0.861,28.148 -1.971,27.349 -3.389,25.438 -4.377,23.467 -5.114,20.697 -5.36,17.309 -5.114,14.352 -4.621,11.95 -3.755,8.871 -2.402,5.175 -1.047,2.588 -0.061,0.74 0.614,-0.43 0,0 z"
         style="fill:none;stroke:#b7202f;stroke-width:0.05694405;stroke-linecap:butt;stroke-linejoin:miter;stroke-miterlimit:4;stroke-opacity:1;stroke-dasharray:none"
         id="path726" />
    </g>
    <g
       id="g728"
       transform="matrix(10.008984,0,0,-10.098673,1237.7844,435.90446)">
      <path
         inkscape:connector-curvature="0"
         d="M 0,0 C 1.833,0 3.249,1.172 3.833,2.71 3.791,5.256 2.417,6.875 0.252,6.875 -1.876,6.875 -3.142,5.459 -3.142,3.478 -3.142,1.212 -1.582,0 0,0 m -3.269,-4.793 c 0.688,-0.524 1.393,-0.829 2.563,-0.829 2.372,0 4.434,2.063 4.624,6.108 -0.918,-0.931 -2.044,-1.74 -4.125,-1.74 -2.252,0 -4.519,1.537 -4.519,4.691 0,3.115 2.352,4.692 4.852,4.692 3.123,0 5.372,-1.781 5.372,-6.754 0,-4.61 -2.122,-8.251 -6.164,-8.251 -1.623,0 -2.811,0.446 -3.25,0.85 l 0.647,1.233 z"
         style="fill:#231f20;fill-opacity:1;fill-rule:nonzero;stroke:none"
         id="path730" />
    </g>
    <g
       id="g732"
       transform="matrix(10.008984,0,0,-10.098673,1237.7844,435.90446)"
       style="fill:#000000">
      <path
         inkscape:connector-curvature="0"
         d="M 0,0 C 1.833,0 3.249,1.172 3.833,2.71 3.791,5.256 2.417,6.875 0.252,6.875 -1.876,6.875 -3.142,5.459 -3.142,3.478 -3.142,1.212 -1.582,0 0,0 z m -3.269,-4.793 c 0.688,-0.524 1.393,-0.829 2.563,-0.829 2.372,0 4.434,2.063 4.624,6.108 -0.918,-0.931 -2.044,-1.74 -4.125,-1.74 -2.252,0 -4.519,1.537 -4.519,4.691 0,3.115 2.352,4.692 4.852,4.692 3.123,0 5.372,-1.781 5.372,-6.754 0,-4.61 -2.122,-8.251 -6.164,-8.251 -1.623,0 -2.811,0.446 -3.25,0.85 l 0.647,1.233 z"
         style="fill:#000000;stroke:#231f20;stroke-width:0.07546952000000000;stroke-linecap:butt;stroke-linejoin:miter;stroke-miterlimit:4;stroke-opacity:1;stroke-dasharray:none"
         id="path734" />
    </g>
    <g
       id="g736"
       transform="matrix(10.008984,0,0,-10.098673,1368.867,366.47301)">
      <path
         inkscape:connector-curvature="0"
         d="m 0,0 c -1.642,0 -3.267,-0.689 -3.267,-2.306 0,-1.577 2.042,-2.467 3.267,-2.811 1.669,0.406 3.27,1.394 3.27,2.811 C 3.27,-0.689 1.644,0 0,0 m 0,-12.497 c 2.729,0 3.896,1.455 3.896,2.752 0,1.696 -1.79,2.546 -4.164,3.313 -1.834,-0.767 -3.623,-1.617 -3.623,-3.313 0,-1.297 1.164,-2.752 3.891,-2.752 m 0,-1.255 c -3.682,0 -5.474,1.781 -5.474,4.007 0,1.858 1.496,3.152 3.29,3.962 l 0,0.039 c -1.666,0.607 -2.663,1.842 -2.663,3.357 0,2.387 2.077,3.641 4.847,3.641 2.773,0 4.854,-1.254 4.854,-3.641 0,-1.515 -0.999,-2.75 -2.666,-3.357 l 0,-0.039 c 1.793,-0.627 3.291,-1.984 3.291,-3.962 0,-2.226 -1.792,-4.007 -5.479,-4.007"
         style="fill:#231f20;fill-opacity:1;fill-rule:nonzero;stroke:none"
         id="path738" />
    </g>
    <g
       id="g740"
       transform="matrix(10.008984,0,0,-10.098673,1368.867,366.47301)"
       style="fill:#000000">
      <path
         inkscape:connector-curvature="0"
         d="m 0,0 c -1.642,0 -3.267,-0.689 -3.267,-2.306 0,-1.577 2.042,-2.467 3.267,-2.811 1.669,0.406 3.27,1.394 3.27,2.811 C 3.27,-0.689 1.644,0 0,0 z m 0,-12.497 c 2.729,0 3.896,1.455 3.896,2.752 0,1.696 -1.79,2.546 -4.164,3.313 -1.834,-0.767 -3.623,-1.617 -3.623,-3.313 0,-1.297 1.164,-2.752 3.891,-2.752 z m 0,-1.255 c -3.682,0 -5.474,1.781 -5.474,4.007 0,1.858 1.496,3.152 3.29,3.962 l 0,0.039 c -1.666,0.607 -2.663,1.842 -2.663,3.357 0,2.387 2.077,3.641 4.847,3.641 2.773,0 4.854,-1.254 4.854,-3.641 0,-1.515 -0.999,-2.75 -2.666,-3.357 l 0,-0.039 c 1.793,-0.627 3.291,-1.984 3.291,-3.962 0,-2.226 -1.792,-4.007 -5.479,-4.007 z"
         style="fill:#000000;stroke:#231f20;stroke-width:0.07546952000000000;stroke-linecap:butt;stroke-linejoin:miter;stroke-miterlimit:4;stroke-opacity:1;stroke-dasharray:none"
         id="path742" />
    </g>
    <path
       inkscape:connector-curvature="0"
       d="m 1474.5769,503.30097 -20.4583,0 0,-22.46955 20.4583,0 0,22.46955 z"
       style="fill:#000000;fill-opacity:1;fill-rule:nonzero;stroke:#231f20;stroke-width:0.75874995999999995;stroke-linecap:butt;stroke-linejoin:miter;stroke-miterlimit:4;stroke-opacity:1;stroke-dasharray:none"
       id="path744" />
    <g
       id="g746"
       transform="matrix(10.008984,0,0,-10.098673,1515.4076,468.17877)">
      <path
         inkscape:connector-curvature="0"
         d="m 0,0 c 1.144,-1.497 2.56,-2.426 4.121,-2.426 2.21,0 3.545,1.091 3.545,2.831 0,2.043 -1.252,3.276 -4.251,3.276 l -1.481,0 0,1.253 0.897,0 c 3.001,0 4.291,0.932 4.291,2.73 0,1.476 -1.312,2.407 -2.749,2.407 -1.833,0 -2.626,-0.768 -3.623,-2.022 l -1.226,0.808 c 1.017,1.377 2.434,2.468 4.849,2.468 2.664,0 4.331,-1.336 4.331,-3.641 C 8.704,5.926 7.537,4.895 6.371,4.449 8.746,3.56 9.247,1.902 9.247,0.567 9.247,-1.919 7.27,-3.68 4.121,-3.68 c -2.87,0 -4.622,1.74 -5.329,2.872 L 0,0 z"
         style="fill:#231f20;fill-opacity:1;fill-rule:nonzero;stroke:none"
         id="path748" />
    </g>
    <g
       id="g750"
       transform="matrix(10.008984,0,0,-10.098673,1515.4076,468.17877)"
       style="fill:#000000">
      <path
         inkscape:connector-curvature="0"
         d="m 0,0 c 1.144,-1.497 2.56,-2.426 4.121,-2.426 2.21,0 3.545,1.091 3.545,2.831 0,2.043 -1.252,3.276 -4.251,3.276 l -1.481,0 0,1.253 0.897,0 c 3.001,0 4.291,0.932 4.291,2.73 0,1.476 -1.312,2.407 -2.749,2.407 -1.833,0 -2.626,-0.768 -3.623,-2.022 l -1.226,0.808 c 1.017,1.377 2.434,2.468 4.849,2.468 2.664,0 4.331,-1.336 4.331,-3.641 C 8.704,5.926 7.537,4.895 6.371,4.449 8.746,3.56 9.247,1.902 9.247,0.567 9.247,-1.919 7.27,-3.68 4.121,-3.68 c -2.87,0 -4.622,1.74 -5.329,2.872 L 0,0 z"
         style="fill:#000000;stroke:#231f20;stroke-width:0.07546952000000000;stroke-linecap:butt;stroke-linejoin:miter;stroke-miterlimit:4;stroke-opacity:1;stroke-dasharray:none"
         id="path752" />
    </g>
  </g>
</svg>
