<?xml version="1.0" encoding="UTF-8" standalone="no"?>
<!-- Created with Inkscape (http://www.inkscape.org/) -->
<svg xmlns:dc="http://purl.org/dc/elements/1.1/" xmlns:cc="http://creativecommons.org/ns#" xmlns:rdf="http://www.w3.org/1999/02/22-rdf-syntax-ns#" xmlns:svg="http://www.w3.org/2000/svg" xmlns="http://www.w3.org/2000/svg" xmlns:sodipodi="http://sodipodi.sourceforge.net/DTD/sodipodi-0.dtd" xmlns:inkscape="http://www.inkscape.org/namespaces/inkscape" width="500" height="269.0799" id="svg2" version="1.1" inkscape:version="0.48.2 r9819" sodipodi:docname="wave10322.svg">
  <defs id="defs4"/>
  <sodipodi:namedview id="base" pagecolor="#ffffff" bordercolor="#666666" borderopacity="1.0" inkscape:pageopacity="0.0" inkscape:pageshadow="2" inkscape:zoom="0.11" inkscape:cx="-453.72681" inkscape:cy="6.5307277" inkscape:document-units="px" inkscape:current-layer="layer2" showgrid="false" fit-margin-top="0" fit-margin-left="0" fit-margin-right="0" fit-margin-bottom="0" inkscape:window-width="1360" inkscape:window-height="706" inkscape:window-x="-8" inkscape:window-y="-8" inkscape:window-maximized="1" showguides="true" inkscape:guide-bbox="true"/>
  <metadata id="metadata7">
    <rdf:RDF>
      <cc:Work rdf:about="">
        <dc:format>image/svg+xml</dc:format>
        <dc:type rdf:resource="http://purl.org/dc/dcmitype/StillImage"/>
        <dc:title/>
      </cc:Work>
    </rdf:RDF>
  </metadata>
  <g inkscape:label="Layer 1" inkscape:groupmode="layer" id="layer1" transform="translate(-120.49476,361.61375)">
    <path style="fill:#32bb9f;fill-opacity:1;stroke:none" d="m 220.19795,-352.10235 c -23.93796,8.76904 -49.32088,19.34426 -90.76151,49.99163 -7.21375,5.9324 -3.70747,13.45156 -2.28678,14.20982 1.05306,1.81513 6.4183,8.02479 17.33281,0.83621 0.27325,4.83542 -1.97197,3.27459 -2.42678,5.82427 -0.24222,0.89121 -0.51434,1.69268 -0.48536,3.39749 -3.88933,3.64587 -7.94068,7.06358 -11.16318,11.64853 -5.07154,5.20596 -1.47998,12.95045 1.94143,15.04602 4.92984,3.28682 13.32852,1.91007 15.70043,-2.19412 1.79224,3.35043 1.57726,5.02819 1.77238,7.04768 -5.64754,4.44029 -11.54882,10.40303 -17.47281,16.50209 -12.20482,12.18342 -14.40599,15.92918 -9.24355,24.37323 2.6142,3.43826 11.21184,5.9338 17.49459,-0.10544 l 7.513,-7.59665 c 0.71043,-0.53367 1.40554,-0.97545 1.94593,-0.48893 -7.03552,6.43142 -7.9917,12.32643 -3.27616,17.72099 2.41797,2.16086 5.8426,4.73545 12.95569,1.787 1.85798,-0.41702 1.89807,0.43848 2.08483,1.19132 0.40722,1.12408 -6.66123,10.0325 -8.3393,13.1046 -3.54854,5.39608 -7.04084,10.76001 -11.76436,16.82751 -3.17419,5.96684 1.5953,13.2134 5.06314,14.29593 8.4623,2.65173 10.89981,-1.23163 14.55516,-5.20517 3.95941,-5.05371 10.02017,-12.31494 10.46272,-11.62234 0.41254,-0.69033 1.39755,7.69745 1.04241,8.04146 0.53368,0.66335 -7.34758,9.08713 -10.42411,14.8916 -2.77133,6.09468 -10.566,16.17398 -9.82845,16.38075 -2.931,6.45048 3.1297,12.1952 3.87181,12.50894 2.22217,1.75886 6.76476,2.75891 11.61545,1.93591 l 44.53538,3.75898 c 1.07041,1.72407 10.2327,6.74622 12.55509,6.38026 3.95318,0.43549 9.33982,-4.08061 10.86497,-6.86314 l 19.90373,-0.24146 c 3.00797,4.57987 6.428,9.102611 8.34519,8.69198 5.68582,0.720901 14.13804,-0.88225 15.4524,-1.10187 4.37912,-1.0808 10.93519,-6.67573 11.10642,-7.59011 l 66.63848,0.24146 c 2.2432,5.09416 9.83534,7.77649 11.10642,7.27667 1.9271,0.34315 9.28966,-4.18968 10.14064,-7.51813 l 29.45615,0 c 0.20436,3.35008 -0.81397,11.068181 7.72619,13.279421 1.94364,0.32527 3.96781,0.58342 7.00187,0 5.43606,-1.92893 5.05657,-4.690161 8.34781,-6.896531 2.10074,-2.08979 8.52224,-2.54453 11.18365,-6.28015 l 5.5787,0.13872 c -0.97336,12.717751 6.31039,15.249681 10.38208,14.969511 8.01266,-0.2648 6.80229,-3.21663 11.34786,-5.55321 3.45141,-1.740521 7.80074,-3.241161 8.20909,-5.794651 1.05615,-1.3273 1.6666,-0.87178 2.17299,0 0.83754,10.760781 10.31327,12.241651 11.58931,12.313631 4.95165,0.33068 29.67067,-11.502941 38.98042,-15.624481 L 583.745,-143.0628 c 5.54737,-3.12351 11.4761,-6.6284 19.34247,-12.07093 3.89695,-2.51565 7.22031,-6.73791 11.09403,-9.69962 5.43798,-4.64382 5.68229,-7.35789 6.12957,-10.77959 1.03539,-1.35873 -2.30087,-11.7806 -10.1455,-12.04778 -5.39587,0.57902 -9.40609,3.00558 -12.89324,6.12957 l -6.34093,-7.60913 5.28411,-2.9591 c 3.82996,-6.45527 7.14935,-12.55952 7.60913,-16.6978 -0.23681,-2.45076 -1.71551,-4.76327 -2.79928,-7.47767 -2.21757,-6.05258 -2.67501,-5.0365 -3.96439,-6.89511 l 5.28411,-11.20233 c 7.20816,-9.58867 13.3533,-26.1184 13.31597,-27.68876 -3.41368,-10.87318 -8.62076,-9.32401 -8.87731,-10.77959 -1.09178,-0.28536 6.48715,-14.83563 5.70684,-18.81145 -0.23475,-1.09104 0.81169,-6.32776 -8.87731,-10.14549 0.34351,-2.91825 2.30459,-8.75408 -1.26819,-12.89325 -1.41602,-1.63457 -3.03521,-3.224 -6.34093,-4.43865 0.53686,-2.77026 7.42564,-9.56725 6.76366,-15.21825 0.10391,-1.0154 -3.87969,-10.82244 -11.41369,-10.35686 -5.32242,1.06291 -10.10554,2.95553 -12.68187,8.24321 -2.45909,0.21625 -9.71992,-0.23706 -12.04778,-2.325 -1.13515,-0.5871 -2.07467,-1.29158 -4.22729,-1.26819 -2.21446,1.08871 -4.00636,1.10521 -4.43866,0.63409 -2.11796,-2.44237 -4.64266,-4.32547 -8.45457,-4.43865 -4.73419,-0.64309 -8.08651,3.07839 -11.7849,5.70684 -0.45449,0.68456 -1.66247,-10.4034 -11.25385,-10.1455 -3.15293,-0.1231 -6.29324,0.27016 -9.30003,6.12957 -1.70734,2.33202 -4.53424,5.18144 -5.91821,5.28412 -1.00968,0.37546 -4.77911,-4.76653 -9.30005,-4.22729 -2.03494,0.5305 -2.7736,0.28324 -3.80456,0.21136 -2.83195,-3.8388 -5.83415,-4.61295 -8.87731,-4.65002 -0.90845,-0.10718 -4.74072,0.17935 -8.7974,5.75838 -5.08593,-0.46018 -9.60602,-0.5075 -13.60725,5.44394 l -23.67283,-0.63409 c -0.058,-1.69714 -1.81637,-2.54411 -5.28411,-2.53638 -2.22024,-0.10843 -4.51845,-0.45075 -5.70684,2.53638 l -22.61601,-0.6341 c -0.44112,-1.27273 -1.3026,-2.52988 -7.39775,-3.5932 -2.3295,1.34402 -3.56582,1.37624 -4.86139,1.47956 -1.57804,-3.19579 -2.96103,-6.48096 -9.51141,-7.39777 -7.07483,-0.31234 -8.94458,6.38072 -10.14549,6.34095 -0.2068,0.78025 -2.59463,-0.38524 -5.91821,3.80456 l -13.31597,-0.21136 c -0.39007,-1.91025 -2.63552,-9.87184 -10.27695,-10.32849 -2.62182,-0.28763 -5.43811,0.33425 -9.59132,4.83301 -2.53018,-1.76757 -4.53613,-4.05937 -8.45459,-4.43867 -1.66215,-0.3015 -4.21373,0.53653 -8.45457,5.07276 -2.34979,-2.32889 -3.75167,-1.81404 -5.28412,-1.69092 -2.06943,0.65916 -2.03083,0.11372 -2.74774,0 -0.84561,-1.67248 1.75263,-3.67277 -4.01593,-8.03185 0.40897,-2.82292 -1.74891,-11.22021 -10.56822,-11.83641 -8.67648,1.16665 -18.66867,8.03481 -28.0032,12.05301 -2.1379,0.72228 -5.35356,1.60576 -7.71742,4.22205 -3.18681,-1.89853 -5.60433,-5.0792 -9.93413,-5.07275 -4.46577,-0.0651 -9.4589,3.70614 -12.25914,5.49549 -3.30795,2.24615 -7.03252,4.39697 -9.014,6.94664 -0.8393,0.797 1.94023,-14.36474 -11.9111,-14.13304 z" id="path2996" inkscape:connector-curvature="0" sodipodi:nodetypes="cccccccccccccccccccccccccccccccccccccccccccccccccccccccccccccccccccccccccccccccccccccccccccccccccccccccccccc"/>
    <rect style="fill:#000000;stroke:none" id="rect3000" width="416.29395" height="38.3354" x="167.70285" y="-335.91623"/>
    <rect style="fill:#ffffff;fill-opacity:1;fill-rule:nonzero;stroke:none" id="rect3784" width="9.5390768" height="9.5390768" x="169.85266" y="-326.52835"/>
    <rect y="-326.52835" x="191.50896" height="9.5390768" width="9.5390768" id="rect3786" style="fill:#ffffff;fill-opacity:1;fill-rule:nonzero;stroke:none"/>
    <rect style="fill:#ffffff;fill-opacity:1;fill-rule:nonzero;stroke:none" id="rect3788" width="9.5390768" height="9.5390768" x="213.16524" y="-326.52835"/>
    <rect y="-326.52835" x="234.82176" height="9.5390768" width="9.5390768" id="rect3790" style="fill:#ffffff;fill-opacity:1;fill-rule:nonzero;stroke:none"/>
    <rect style="fill:#ffffff;fill-opacity:1;fill-rule:nonzero;stroke:none" id="rect3792" width="9.5390768" height="9.5390768" x="256.47781" y="-326.52835"/>
    <rect y="-326.52835" x="278.13467" height="9.5390768" width="9.5390768" id="rect3794" style="fill:#ffffff;fill-opacity:1;fill-rule:nonzero;stroke:none"/>
    <rect style="fill:#ffffff;fill-opacity:1;fill-rule:nonzero;stroke:none" id="rect3796" width="9.5390768" height="9.5390768" x="299.79114" y="-326.52835"/>
    <rect y="-326.52835" x="321.70447" height="9.5390768" width="9.5390768" id="rect3798" style="fill:#ffffff;fill-opacity:1;fill-rule:nonzero;stroke:none"/>
    <rect style="fill:#ffffff;fill-opacity:1;fill-rule:nonzero;stroke:none" id="rect3800" width="9.5390768" height="9.5390768" x="321.44757" y="-326.52835"/>
    <rect y="-326.52835" x="344.01639" height="9.5390768" width="9.5390768" id="rect3804" style="fill:#ffffff;fill-opacity:1;fill-rule:nonzero;stroke:none"/>
    <rect style="fill:#ffffff;fill-opacity:1;fill-rule:nonzero;stroke:none" id="rect3806" width="9.5390768" height="9.5390768" x="365.67267" y="-326.52835"/>
    <rect y="-326.52835" x="387.32898" height="9.5390768" width="9.5390768" id="rect3808" style="fill:#ffffff;fill-opacity:1;fill-rule:nonzero;stroke:none"/>
    <rect style="fill:#ffffff;fill-opacity:1;fill-rule:nonzero;stroke:none" id="rect3810" width="9.5390768" height="9.5390768" x="408.9855" y="-326.52835"/>
    <rect y="-326.52835" x="430.64154" height="9.5390768" width="9.5390768" id="rect3812" style="fill:#ffffff;fill-opacity:1;fill-rule:nonzero;stroke:none"/>
    <rect style="fill:#ffffff;fill-opacity:1;fill-rule:nonzero;stroke:none" id="rect3814" width="9.5390768" height="9.5390768" x="452.2984" y="-326.52835"/>
    <rect y="-326.52835" x="473.95486" height="9.5390768" width="9.5390768" id="rect3816" style="fill:#ffffff;fill-opacity:1;fill-rule:nonzero;stroke:none"/>
    <rect y="-326.52835" x="495.61127" height="9.5390768" width="9.5390768" id="rect3818" style="fill:#ffffff;fill-opacity:1;fill-rule:nonzero;stroke:none"/>
    <rect y="-326.52835" x="517.53357" height="9.5390768" width="9.5390768" id="rect3820" style="fill:#ffffff;fill-opacity:1;fill-rule:nonzero;stroke:none"/>
    <rect style="fill:#ffffff;fill-opacity:1;fill-rule:nonzero;stroke:none" id="rect3822" width="9.5390768" height="9.5390768" x="539.19" y="-326.52835"/>
    <rect style="fill:#ffffff;fill-opacity:1;fill-rule:nonzero;stroke:none" id="rect3824" width="9.5390768" height="9.5390768" x="560.84637" y="-326.52835"/>
    <rect y="-316.94833" x="180.41631" height="9.5390768" width="9.5390768" id="rect3826" style="fill:#ffffff;fill-opacity:1;fill-rule:nonzero;stroke:none"/>
    <rect style="fill:#ffffff;fill-opacity:1;fill-rule:nonzero;stroke:none" id="rect3828" width="9.5390768" height="9.5390768" x="202.0726" y="-316.94833"/>
    <rect y="-316.94833" x="223.72888" height="9.5390768" width="9.5390768" id="rect3830" style="fill:#ffffff;fill-opacity:1;fill-rule:nonzero;stroke:none"/>
    <rect style="fill:#ffffff;fill-opacity:1;fill-rule:nonzero;stroke:none" id="rect3832" width="9.5390768" height="9.5390768" x="245.38539" y="-316.94833"/>
    <rect y="-316.94833" x="267.04144" height="9.5390768" width="9.5390768" id="rect3834" style="fill:#ffffff;fill-opacity:1;fill-rule:nonzero;stroke:none"/>
    <rect style="fill:#ffffff;fill-opacity:1;fill-rule:nonzero;stroke:none" id="rect3836" width="9.5390768" height="9.5390768" x="288.6983" y="-316.94833"/>
    <rect y="-316.94833" x="310.35477" height="9.5390768" width="9.5390768" id="rect3838" style="fill:#ffffff;fill-opacity:1;fill-rule:nonzero;stroke:none"/>
    <rect y="-316.94833" x="332.0112" height="9.5390768" width="9.5390768" id="rect3840" style="fill:#ffffff;fill-opacity:1;fill-rule:nonzero;stroke:none"/>
    <rect style="fill:#ffffff;fill-opacity:1;fill-rule:nonzero;stroke:none" id="rect3842" width="9.5390768" height="9.5390768" x="354.58002" y="-316.94833"/>
    <rect y="-316.94833" x="376.2363" height="9.5390768" width="9.5390768" id="rect3844" style="fill:#ffffff;fill-opacity:1;fill-rule:nonzero;stroke:none"/>
    <rect style="fill:#ffffff;fill-opacity:1;fill-rule:nonzero;stroke:none" id="rect3846" width="9.5390768" height="9.5390768" x="397.89261" y="-316.94833"/>
    <rect y="-316.94833" x="419.54913" height="9.5390768" width="9.5390768" id="rect3848" style="fill:#ffffff;fill-opacity:1;fill-rule:nonzero;stroke:none"/>
    <rect style="fill:#ffffff;fill-opacity:1;fill-rule:nonzero;stroke:none" id="rect3850" width="9.5390768" height="9.5390768" x="441.20517" y="-316.94833"/>
    <rect y="-316.94833" x="462.86206" height="9.5390768" width="9.5390768" id="rect3852" style="fill:#ffffff;fill-opacity:1;fill-rule:nonzero;stroke:none"/>
    <rect style="fill:#ffffff;fill-opacity:1;fill-rule:nonzero;stroke:none" id="rect3854" width="9.5390768" height="9.5390768" x="484.51849" y="-316.94833"/>
    <rect style="fill:#ffffff;fill-opacity:1;fill-rule:nonzero;stroke:none" id="rect3856" width="9.5390768" height="9.5390768" x="506.1749" y="-316.94833"/>
    <rect style="fill:#ffffff;fill-opacity:1;fill-rule:nonzero;stroke:none" id="rect3858" width="9.5390768" height="9.5390768" x="528.09717" y="-316.94833"/>
    <rect y="-316.94833" x="549.7536" height="9.5390768" width="9.5390768" id="rect3860" style="fill:#ffffff;fill-opacity:1;fill-rule:nonzero;stroke:none"/>
    <rect y="-316.94833" x="571.41003" height="9.5390768" width="9.5390768" id="rect3862" style="fill:#ffffff;fill-opacity:1;fill-rule:nonzero;stroke:none"/>
    <rect y="-145.66805" x="167.70285" height="38.3354" width="416.29395" id="rect3864" style="fill:#000000;stroke:none"/>
    <rect y="-136.28011" x="169.85266" height="9.5390768" width="9.5390768" id="rect3866" style="fill:#ffffff;fill-opacity:1;fill-rule:nonzero;stroke:none"/>
    <rect style="fill:#ffffff;fill-opacity:1;fill-rule:nonzero;stroke:none" id="rect3868" width="9.5390768" height="9.5390768" x="191.50896" y="-136.28011"/>
    <rect y="-136.28011" x="213.16524" height="9.5390768" width="9.5390768" id="rect3870" style="fill:#ffffff;fill-opacity:1;fill-rule:nonzero;stroke:none"/>
    <rect style="fill:#ffffff;fill-opacity:1;fill-rule:nonzero;stroke:none" id="rect3872" width="9.5390768" height="9.5390768" x="234.82176" y="-136.28011"/>
    <rect y="-136.28011" x="256.47781" height="9.5390768" width="9.5390768" id="rect3874" style="fill:#ffffff;fill-opacity:1;fill-rule:nonzero;stroke:none"/>
    <rect style="fill:#ffffff;fill-opacity:1;fill-rule:nonzero;stroke:none" id="rect3876" width="9.5390768" height="9.5390768" x="278.13467" y="-136.28011"/>
    <rect y="-136.28011" x="299.79114" height="9.5390768" width="9.5390768" id="rect3878" style="fill:#ffffff;fill-opacity:1;fill-rule:nonzero;stroke:none"/>
    <rect style="fill:#ffffff;fill-opacity:1;fill-rule:nonzero;stroke:none" id="rect3880" width="9.5390768" height="9.5390768" x="321.70447" y="-136.28011"/>
    <rect y="-136.28011" x="321.44757" height="9.5390768" width="9.5390768" id="rect3882" style="fill:#ffffff;fill-opacity:1;fill-rule:nonzero;stroke:none"/>
    <rect style="fill:#ffffff;fill-opacity:1;fill-rule:nonzero;stroke:none" id="rect3884" width="9.5390768" height="9.5390768" x="344.01639" y="-136.28011"/>
    <rect y="-136.28011" x="365.67267" height="9.5390768" width="9.5390768" id="rect3886" style="fill:#ffffff;fill-opacity:1;fill-rule:nonzero;stroke:none"/>
    <rect style="fill:#ffffff;fill-opacity:1;fill-rule:nonzero;stroke:none" id="rect3888" width="9.5390768" height="9.5390768" x="387.32898" y="-136.28011"/>
    <rect y="-136.28011" x="408.9855" height="9.5390768" width="9.5390768" id="rect3890" style="fill:#ffffff;fill-opacity:1;fill-rule:nonzero;stroke:none"/>
    <rect style="fill:#ffffff;fill-opacity:1;fill-rule:nonzero;stroke:none" id="rect3892" width="9.5390768" height="9.5390768" x="430.64154" y="-136.28011"/>
    <rect y="-136.28011" x="452.2984" height="9.5390768" width="9.5390768" id="rect3894" style="fill:#ffffff;fill-opacity:1;fill-rule:nonzero;stroke:none"/>
    <rect style="fill:#ffffff;fill-opacity:1;fill-rule:nonzero;stroke:none" id="rect3896" width="9.5390768" height="9.5390768" x="473.95486" y="-136.28011"/>
    <rect style="fill:#ffffff;fill-opacity:1;fill-rule:nonzero;stroke:none" id="rect3898" width="9.5390768" height="9.5390768" x="495.61127" y="-136.28011"/>
    <rect style="fill:#ffffff;fill-opacity:1;fill-rule:nonzero;stroke:none" id="rect3900" width="9.5390768" height="9.5390768" x="517.53357" y="-136.28011"/>
    <rect y="-136.28011" x="539.19" height="9.5390768" width="9.5390768" id="rect3902" style="fill:#ffffff;fill-opacity:1;fill-rule:nonzero;stroke:none"/>
    <rect y="-136.28011" x="560.84637" height="9.5390768" width="9.5390768" id="rect3904" style="fill:#ffffff;fill-opacity:1;fill-rule:nonzero;stroke:none"/>
    <rect style="fill:#ffffff;fill-opacity:1;fill-rule:nonzero;stroke:none" id="rect3906" width="9.5390768" height="9.5390768" x="180.41631" y="-126.7001"/>
    <rect y="-126.7001" x="202.0726" height="9.5390768" width="9.5390768" id="rect3908" style="fill:#ffffff;fill-opacity:1;fill-rule:nonzero;stroke:none"/>
    <rect style="fill:#ffffff;fill-opacity:1;fill-rule:nonzero;stroke:none" id="rect3910" width="9.5390768" height="9.5390768" x="223.72888" y="-126.7001"/>
    <rect y="-126.7001" x="245.38539" height="9.5390768" width="9.5390768" id="rect3912" style="fill:#ffffff;fill-opacity:1;fill-rule:nonzero;stroke:none"/>
    <rect style="fill:#ffffff;fill-opacity:1;fill-rule:nonzero;stroke:none" id="rect3914" width="9.5390768" height="9.5390768" x="267.04144" y="-126.7001"/>
    <rect y="-126.7001" x="288.6983" height="9.5390768" width="9.5390768" id="rect3916" style="fill:#ffffff;fill-opacity:1;fill-rule:nonzero;stroke:none"/>
    <rect style="fill:#ffffff;fill-opacity:1;fill-rule:nonzero;stroke:none" id="rect3918" width="9.5390768" height="9.5390768" x="310.35477" y="-126.7001"/>
    <rect style="fill:#ffffff;fill-opacity:1;fill-rule:nonzero;stroke:none" id="rect3920" width="9.5390768" height="9.5390768" x="332.0112" y="-126.7001"/>
    <rect y="-126.7001" x="354.58002" height="9.5390768" width="9.5390768" id="rect3922" style="fill:#ffffff;fill-opacity:1;fill-rule:nonzero;stroke:none"/>
    <rect style="fill:#ffffff;fill-opacity:1;fill-rule:nonzero;stroke:none" id="rect3924" width="9.5390768" height="9.5390768" x="376.2363" y="-126.7001"/>
    <rect y="-126.7001" x="397.89261" height="9.5390768" width="9.5390768" id="rect3926" style="fill:#ffffff;fill-opacity:1;fill-rule:nonzero;stroke:none"/>
    <rect style="fill:#ffffff;fill-opacity:1;fill-rule:nonzero;stroke:none" id="rect3928" width="9.5390768" height="9.5390768" x="419.54913" y="-126.7001"/>
    <rect y="-126.7001" x="441.20517" height="9.5390768" width="9.5390768" id="rect3930" style="fill:#ffffff;fill-opacity:1;fill-rule:nonzero;stroke:none"/>
    <rect style="fill:#ffffff;fill-opacity:1;fill-rule:nonzero;stroke:none" id="rect3932" width="9.5390768" height="9.5390768" x="462.86206" y="-126.7001"/>
    <rect y="-126.7001" x="484.51849" height="9.5390768" width="9.5390768" id="rect3934" style="fill:#ffffff;fill-opacity:1;fill-rule:nonzero;stroke:none"/>
    <rect y="-126.7001" x="506.1749" height="9.5390768" width="9.5390768" id="rect3936" style="fill:#ffffff;fill-opacity:1;fill-rule:nonzero;stroke:none"/>
    <rect y="-126.7001" x="528.09717" height="9.5390768" width="9.5390768" id="rect3938" style="fill:#ffffff;fill-opacity:1;fill-rule:nonzero;stroke:none"/>
    <rect style="fill:#ffffff;fill-opacity:1;fill-rule:nonzero;stroke:none" id="rect3940" width="9.5390768" height="9.5390768" x="549.7536" y="-126.7001"/>
    <rect style="fill:#ffffff;fill-opacity:1;fill-rule:nonzero;stroke:none" id="rect3942" width="9.5390768" height="9.5390768" x="571.41003" y="-126.7001"/>
  </g>
  <g inkscape:groupmode="layer" id="layer2" inkscape:label="Warstwa" transform="translate(-120.49476,361.61375)"/>
  <g inkscape:groupmode="layer" id="layer3" inkscape:label="Warstwa#1" transform="translate(-120.49476,361.61375)"/>
  <g inkscape:groupmode="layer" id="layer4" inkscape:label="Warstwa#2" transform="translate(-5.3141432e-7,854.95638)"/>
  <g inkscape:groupmode="layer" id="layer5" inkscape:label="Warstwa#3" transform="translate(-5.3141432e-7,854.95638)">
    <g transform="matrix(0.27189785,0.05188815,-0.04277871,0.32979659,632.6202,-685.25064)" style="font-size:540.67883301px;font-style:normal;font-variant:normal;font-weight:normal;font-stretch:normal;line-height:125%;letter-spacing:0px;word-spacing:0px;fill:#000000;fill-opacity:1;stroke:none;font-family:Iron Maiden;-inkscape-font-specification:Iron Maiden" id="text4592">
      <path d="m -717.81269,75.487566 c 11.18505,-0.371529 22.97297,-1.481692 34.37679,-0.118047 12.60593,3.737104 27.24953,9.054107 31.50009,36.070271 3.0752,19.54576 2.47544,48.79414 -2.86165,69.6992 -2.47118,9.39978 -6.92202,25.36182 -31.51147,29.23057 -11.51052,1.81099 -31.67357,-2.90446 -36.67165,-21.27064 -4.77807,-17.55771 -5.21078,-32.43742 -4.69255,-50.57257 l -64.98748,2.95858 c -0.41553,35.64364 -1.20988,76.43718 31.42127,106.11887 16.16002,13.6236 49.35664,21.20737 76.94235,16.86721 80.83525,-9.88879 106.05529,-68.51135 106.16163,-127.97271 3.39812,-51.188421 -18.61469,-89.574575 -60.2537,-94.472648 l 0,-1.081343 c 42.98862,-12.371473 49.95127,-55.622492 54.72601,-85.555069 6.04759,-92.0172 -52.20718,-116.44345 -113.37325,-106.81996 -72.37141,11.38647 -92.36949,75.624204 -90.31774,122.942395 l 65.2271,-2.382836 2.35235,-29.809087 c 2.67988,-19.853936 11.60949,-34.554889 30.58656,-37.540623 37.15656,-5.845979 37.56456,29.864325 37.49629,51.483401 -1.17252,30.548597 -9.47927,65.252286 -41.11411,66.669804 -8.2003,0.315636 -16.26531,0.631028 -24.19505,0.946175 z" style="font-weight:bold;fill:#000000;font-family:Helvetica LT Std Cond;-inkscape-font-specification:Helvetica LT Std Cond Bold" id="path4641" inkscape:connector-curvature="0" sodipodi:nodetypes="cccccsccccccccccccccccc"/>
    </g>
    <g transform="matrix(0.27167516,-0.02215481,0.04518872,0.33455227,632.62025,-685.25064)" style="font-size:532.31469727px;font-style:normal;font-variant:normal;font-weight:normal;font-stretch:normal;line-height:125%;letter-spacing:0px;word-spacing:0px;fill:#000000;fill-opacity:1;stroke:none;font-family:Iron Maiden;-inkscape-font-specification:Iron Maiden" id="text4596">
      <path d="m -925.13799,-234.73781 c 2.32676,-29.71286 6.50567,-62.94617 38.69579,-63.6709 32.55725,-0.733 35.15764,42.47331 35.38057,64.17007 2.82845,61.92116 1.29588,120.56553 0,179.387746 -1.63578,23.526714 -7.44471,63.6482032 -41.61715,61.3852279 -31.48192,-2.0848026 -30.8461,-43.7304639 -33.34603,-61.9431299 -0.6362,-59.838044 -0.82055,-119.646164 0.88682,-179.329014 z m -70.97585,179.622647 c 7.98385,72.871566 27.77299,115.564798 103.19404,115.419683 81.21205,-0.156258 103.34401,-64.0505976 110.83871,-115.522454 6.84131,-59.897946 5.90453,-119.611926 1.99532,-179.255606 -6.35332,-49.61825 -12.48032,-117.61566 -102.01986,-117.90393 -89.65539,-0.28864 -107.93579,74.2423 -113.1214,117.93329 -6.36377,54.45964 -5.13587,118.83084 -0.88681,179.329017 z" style="font-weight:bold;fill:#000000;font-family:Helvetica LT Std Cond;-inkscape-font-specification:Helvetica LT Std Cond Bold" id="path4638" inkscape:connector-curvature="0" sodipodi:nodetypes="csccscccsccscc"/>
    </g>
    <g transform="matrix(0.24765338,-0.01712081,0.03547077,0.36859341,632.6202,-685.25064)" style="font-size:484.58953857px;font-style:normal;font-variant:normal;font-weight:normal;font-stretch:normal;line-height:125%;letter-spacing:0px;word-spacing:0px;fill:#000000;fill-opacity:1;stroke:none;font-family:Iron Maiden;-inkscape-font-specification:Iron Maiden" id="text4600">
      <path d="m -2115.0075,-360.5085 -70.9803,0.96609 -43.2886,274.440348 -1.5799,-0.02836 -39.7125,-273.485868 -70.2646,0 66.166,371.552507 81.7953,-0.97335 41.5394,-270.026987 0.9692,0 40.2755,269.016961 82.2509,-0.291358 67.0519,-372.869503 -70.4308,1.16048 -40.9143,274.960787 -0.9692,0 z" style="font-weight:bold;fill:#000000;font-family:Helvetica LT Std Cond;-inkscape-font-specification:Helvetica LT Std Cond Bold" id="path4635" inkscape:connector-curvature="0" sodipodi:nodetypes="ccccccccccccccccc"/>
    </g>
    <g transform="matrix(0.24824433,-2.3680253e-4,0.01031843,0.37015244,632.6202,-685.25064)" style="font-size:484.58953857px;font-style:normal;font-variant:normal;font-weight:normal;font-stretch:normal;line-height:125%;letter-spacing:0px;word-spacing:0px;fill:#000000;fill-opacity:1;stroke:none;font-family:Iron Maiden;-inkscape-font-specification:Iron Maiden" id="text4604">
      <path d="m -1649.019,28.283539 -0.9692,0 -53.1411,-273.970869 -77.9199,0.69461 84.4821,370.53605 94.491,-1.39345 82.1654,-372.27603 -75.8433,0.81227 z" style="font-weight:bold;fill:#000000;font-family:Helvetica LT Std Cond;-inkscape-font-specification:Helvetica LT Std Cond Bold" id="path4632" inkscape:connector-curvature="0" sodipodi:nodetypes="ccccccccc"/>
    </g>
    <g transform="matrix(0.25363869,0.03886143,-0.05040932,0.35456622,632.6202,-685.25064)" style="font-size:507.5838623px;font-style:normal;font-variant:normal;font-weight:normal;font-stretch:normal;line-height:125%;letter-spacing:0px;word-spacing:0px;fill:#000000;fill-opacity:1;stroke:none;font-family:Iron Maiden;-inkscape-font-specification:Iron Maiden" id="text4608">
      <path d="m -1243.4911,268.65008 -2.4086,-64.32845 -130.4704,1.88685 -2.6315,-102.70721 118.6072,-2.04274 -1.5701,-63.73338 -118.4056,1.848906 -2.5569,-89.469105 125.6374,-2.044119 -1.8384,-63.875702 -196.833,2.57411 9.9643,384.91495 z" style="font-weight:bold;fill:#000000;font-family:Helvetica LT Std Cond;-inkscape-font-specification:Helvetica LT Std Cond Bold" id="path4629" inkscape:connector-curvature="0" sodipodi:nodetypes="ccccccccccccc"/>
    </g>
    <g transform="matrix(0.24142999,0.02948748,-0.02932394,0.37702854,632.6202,-685.25064)" style="font-size:570.35760498px;font-style:normal;font-variant:normal;font-weight:normal;font-stretch:normal;line-height:125%;letter-spacing:0px;word-spacing:0px;fill:#000000;fill-opacity:1;stroke:none;font-family:Iron Maiden;-inkscape-font-specification:Iron Maiden" id="text4612">
      <path d="m -1819.4224,265.52838 c -5.6896,-13.23827 -8.2324,-30.50629 -8.3272,-45.81073 l 5.6534,-190.368794 c 2.3881,-22.4335302 -3.2967,-46.950308 -15.5233,-66.817787 -12.2271,-19.866883 -57.7166,-31.227942 -86.7025,-28.960953 -37.9871,2.970982 -69.6196,5.648923 -93.9611,39.04985 -14.033,19.2557307 -21.3977,40.937059 -20.0193,71.961483 l 70.7214,-1.484525 c -1.1913,-21.369872 3.2251,-49.6979659 34.5633,-52.1489364 41.0935,-3.2139306 39.3455,36.3799084 34.604,52.8679924 -5.7506,19.996938 -28.0603,25.017981 -41.3836,28.416863 -20.0858,5.124057 -54.9757,14.605898 -76.1735,29.922147 -23.7626,17.16943 -34.8909,45.40273 -35.6845,75.0351 -0.1642,35.05972 4.3814,61.59029 18.2719,77.29865 13.8903,15.70839 28.4108,24.91612 61.9973,22.28932 43.4126,-3.39531 56.9061,-23.24987 67.8722,-43.11491 l 1.1407,0 c 2.6417,8.78213 3.4579,22.52027 8.9132,33.65374 z m -84.5131,-78.76359 c -5.5544,19.31486 -23.6037,31.28797 -43.7533,32.90915 -39.4218,3.08319 -35.0912,-63.42439 -15.5065,-83.11688 10.3256,-8.30533 22.127,-12.48131 31.223,-14.80177 14.4021,-3.67408 24.7897,-10.88933 34.0581,-17.09204 -2.6063,24.73437 -0.3716,62.45514 -6.0213,82.10154 z" style="font-weight:bold;fill:#000000;font-family:Helvetica LT Std Cond;-inkscape-font-specification:Helvetica LT Std Cond Bold" id="path4626" inkscape:connector-curvature="0" sodipodi:nodetypes="cccccscccccscsccccccccccc"/>
    </g>
    <g transform="matrix(0.27431185,0.03706497,-0.02482871,0.33163135,632.6202,-685.25064)" style="font-size:540.67883301px;font-style:normal;font-variant:normal;font-weight:normal;font-stretch:normal;line-height:125%;letter-spacing:0px;word-spacing:0px;fill:#000000;fill-opacity:1;stroke:none;font-family:Iron Maiden;-inkscape-font-specification:Iron Maiden" id="text4616">
      <path d="m -1122.732,246.20063 70.9706,-3.62695 -1.9852,-410.28434 -52.9598,3.46379 c -4.691,38.886 -32.0151,69.873412 -88.8676,71.861361 l 1.4842,53.12227 69.2574,-4.150011 z" style="font-weight:bold;fill:#000000;font-family:Helvetica LT Std Cond;-inkscape-font-specification:Helvetica LT Std Cond Bold" id="path4623" inkscape:connector-curvature="0" sodipodi:nodetypes="cccccccc"/>
    </g>
    <g id="g4655" style="font-size:540.67883301px;font-style:normal;font-variant:normal;font-weight:normal;font-stretch:normal;line-height:125%;letter-spacing:0px;word-spacing:0px;fill:#ef3d2f;fill-opacity:1;stroke:none;font-family:Iron Maiden;-inkscape-font-specification:Iron Maiden" transform="matrix(0.27189785,0.05188815,-0.04277871,0.32979659,624.87922,-691.55693)">
      <path sodipodi:nodetypes="cccccsccccccccccccccccc" inkscape:connector-curvature="0" id="path4657" style="font-weight:bold;fill:#ef3d2f;fill-opacity:1;font-family:Helvetica LT Std Cond;-inkscape-font-specification:Helvetica LT Std Cond Bold" d="m -717.81269,75.487566 c 11.18505,-0.371529 22.97297,-1.481692 34.37679,-0.118047 12.60593,3.737104 27.24953,9.054107 31.50009,36.070271 3.0752,19.54576 2.47544,48.79414 -2.86165,69.6992 -2.47118,9.39978 -6.92202,25.36182 -31.51147,29.23057 -11.51052,1.81099 -31.67357,-2.90446 -36.67165,-21.27064 -4.77807,-17.55771 -5.21078,-32.43742 -4.69255,-50.57257 l -64.98748,2.95858 c -0.41553,35.64364 -1.20988,76.43718 31.42127,106.11887 16.16002,13.6236 49.35664,21.20737 76.94235,16.86721 80.83525,-9.88879 106.05529,-68.51135 106.16163,-127.97271 3.39812,-51.188421 -18.61469,-89.574575 -60.2537,-94.472648 l 0,-1.081343 c 42.98862,-12.371473 49.95127,-55.622492 54.72601,-85.555069 6.04759,-92.0172 -52.20718,-116.44345 -113.37325,-106.81996 -72.37141,11.38647 -92.36949,75.624204 -90.31774,122.942395 l 65.2271,-2.382836 2.35235,-29.809087 c 2.67988,-19.853936 11.60949,-34.554889 30.58656,-37.540623 37.15656,-5.845979 37.56456,29.864325 37.49629,51.483401 -1.17252,30.548597 -9.47927,65.252286 -41.11411,66.669804 -8.2003,0.315636 -16.26531,0.631028 -24.19505,0.946175 z"/>
    </g>
    <g id="g4659" style="font-size:532.31469727px;font-style:normal;font-variant:normal;font-weight:normal;font-stretch:normal;line-height:125%;letter-spacing:0px;word-spacing:0px;fill:#ef3d2f;fill-opacity:1;stroke:none;font-family:Iron Maiden;-inkscape-font-specification:Iron Maiden" transform="matrix(0.27167516,-0.02215481,0.04518872,0.33455227,624.87926,-691.55693)">
      <path sodipodi:nodetypes="csccscccsccscc" inkscape:connector-curvature="0" id="path4661" style="font-weight:bold;fill:#ef3d2f;fill-opacity:1;font-family:Helvetica LT Std Cond;-inkscape-font-specification:Helvetica LT Std Cond Bold" d="m -925.13799,-234.73781 c 2.32676,-29.71286 6.50567,-62.94617 38.69579,-63.6709 32.55725,-0.733 35.15764,42.47331 35.38057,64.17007 2.82845,61.92116 1.29588,120.56553 0,179.387746 -1.63578,23.526714 -7.44471,63.6482032 -41.61715,61.3852279 -31.48192,-2.0848026 -30.8461,-43.7304639 -33.34603,-61.9431299 -0.6362,-59.838044 -0.82055,-119.646164 0.88682,-179.329014 z m -70.97585,179.622647 c 7.98385,72.871566 27.77299,115.564798 103.19404,115.419683 81.21205,-0.156258 103.34401,-64.0505976 110.83871,-115.522454 6.84131,-59.897946 5.90453,-119.611926 1.99532,-179.255606 -6.35332,-49.61825 -12.48032,-117.61566 -102.01986,-117.90393 -89.65539,-0.28864 -107.93579,74.2423 -113.1214,117.93329 -6.36377,54.45964 -5.13587,118.83084 -0.88681,179.329017 z"/>
    </g>
    <g id="g4663" style="font-size:484.58953857px;font-style:normal;font-variant:normal;font-weight:normal;font-stretch:normal;line-height:125%;letter-spacing:0px;word-spacing:0px;fill:#ef3d2f;fill-opacity:1;stroke:none;font-family:Iron Maiden;-inkscape-font-specification:Iron Maiden" transform="matrix(0.24765338,-0.01712081,0.03547077,0.36859341,624.87922,-691.55693)">
      <path sodipodi:nodetypes="ccccccccccccccccc" inkscape:connector-curvature="0" id="path4665" style="font-weight:bold;fill:#ef3d2f;fill-opacity:1;font-family:Helvetica LT Std Cond;-inkscape-font-specification:Helvetica LT Std Cond Bold" d="m -2115.0075,-360.5085 -70.9803,0.96609 -43.2886,274.440348 -1.5799,-0.02836 -39.7125,-273.485868 -70.2646,0 66.166,371.552507 81.7953,-0.97335 41.5394,-270.026987 0.9692,0 40.2755,269.016961 82.2509,-0.291358 67.0519,-372.869503 -70.4308,1.16048 -40.9143,274.960787 -0.9692,0 z"/>
    </g>
    <g id="g4667" style="font-size:484.58953857px;font-style:normal;font-variant:normal;font-weight:normal;font-stretch:normal;line-height:125%;letter-spacing:0px;word-spacing:0px;fill:#ef3d2f;fill-opacity:1;stroke:none;font-family:Iron Maiden;-inkscape-font-specification:Iron Maiden" transform="matrix(0.24824433,-2.3680253e-4,0.01031843,0.37015244,624.87922,-691.55693)">
      <path sodipodi:nodetypes="ccccccccc" inkscape:connector-curvature="0" id="path4669" style="font-weight:bold;fill:#ef3d2f;fill-opacity:1;font-family:Helvetica LT Std Cond;-inkscape-font-specification:Helvetica LT Std Cond Bold" d="m -1649.019,28.283539 -0.9692,0 -53.1411,-273.970869 -77.9199,0.69461 84.4821,370.53605 94.491,-1.39345 82.1654,-372.27603 -75.8433,0.81227 z"/>
    </g>
    <g id="g4671" style="font-size:507.5838623px;font-style:normal;font-variant:normal;font-weight:normal;font-stretch:normal;line-height:125%;letter-spacing:0px;word-spacing:0px;fill:#ef3d2f;fill-opacity:1;stroke:none;font-family:Iron Maiden;-inkscape-font-specification:Iron Maiden" transform="matrix(0.25363869,0.03886143,-0.05040932,0.35456622,624.87922,-691.55693)">
      <path sodipodi:nodetypes="ccccccccccccc" inkscape:connector-curvature="0" id="path4673" style="font-weight:bold;fill:#ef3d2f;fill-opacity:1;font-family:Helvetica LT Std Cond;-inkscape-font-specification:Helvetica LT Std Cond Bold" d="m -1243.4911,268.65008 -2.4086,-64.32845 -130.4704,1.88685 -2.6315,-102.70721 118.6072,-2.04274 -1.5701,-63.73338 -118.4056,1.848906 -2.5569,-89.469105 125.6374,-2.044119 -1.8384,-63.875702 -196.833,2.57411 9.9643,384.91495 z"/>
    </g>
    <g id="g4675" style="font-size:570.35760498px;font-style:normal;font-variant:normal;font-weight:normal;font-stretch:normal;line-height:125%;letter-spacing:0px;word-spacing:0px;fill:#ef3d2f;fill-opacity:1;stroke:none;font-family:Iron Maiden;-inkscape-font-specification:Iron Maiden" transform="matrix(0.24142999,0.02948748,-0.02932394,0.37702854,624.87922,-691.55693)">
      <path sodipodi:nodetypes="cccccscccccscsccccccccccc" inkscape:connector-curvature="0" id="path4677" style="font-weight:bold;fill:#ef3d2f;fill-opacity:1;font-family:Helvetica LT Std Cond;-inkscape-font-specification:Helvetica LT Std Cond Bold" d="m -1819.4224,265.52838 c -5.6896,-13.23827 -8.2324,-30.50629 -8.3272,-45.81073 l 5.6534,-190.368794 c 2.3881,-22.4335302 -3.2967,-46.950308 -15.5233,-66.817787 -12.2271,-19.866883 -57.7166,-31.227942 -86.7025,-28.960953 -37.9871,2.970982 -69.6196,5.648923 -93.9611,39.04985 -14.033,19.2557307 -21.3977,40.937059 -20.0193,71.961483 l 70.7214,-1.484525 c -1.1913,-21.369872 3.2251,-49.6979659 34.5633,-52.1489364 41.0935,-3.2139306 39.3455,36.3799084 34.604,52.8679924 -5.7506,19.996938 -28.0603,25.017981 -41.3836,28.416863 -20.0858,5.124057 -54.9757,14.605898 -76.1735,29.922147 -23.7626,17.16943 -34.8909,45.40273 -35.6845,75.0351 -0.1642,35.05972 4.3814,61.59029 18.2719,77.29865 13.8903,15.70839 28.4108,24.91612 61.9973,22.28932 43.4126,-3.39531 56.9061,-23.24987 67.8722,-43.11491 l 1.1407,0 c 2.6417,8.78213 3.4579,22.52027 8.9132,33.65374 z m -84.5131,-78.76359 c -5.5544,19.31486 -23.6037,31.28797 -43.7533,32.90915 -39.4218,3.08319 -35.0912,-63.42439 -15.5065,-83.11688 10.3256,-8.30533 22.127,-12.48131 31.223,-14.80177 14.4021,-3.67408 24.7897,-10.88933 34.0581,-17.09204 -2.6063,24.73437 -0.3716,62.45514 -6.0213,82.10154 z"/>
    </g>
    <g id="g4679" style="font-size:540.67883301px;font-style:normal;font-variant:normal;font-weight:normal;font-stretch:normal;line-height:125%;letter-spacing:0px;word-spacing:0px;fill:#ef3d2f;fill-opacity:1;stroke:none;font-family:Iron Maiden;-inkscape-font-specification:Iron Maiden" transform="matrix(0.27431185,0.03706497,-0.02482871,0.33163135,624.87922,-691.55693)">
      <path sodipodi:nodetypes="cccccccc" inkscape:connector-curvature="0" id="path4681" style="font-weight:bold;fill:#ef3d2f;fill-opacity:1;font-family:Helvetica LT Std Cond;-inkscape-font-specification:Helvetica LT Std Cond Bold" d="m -1122.732,246.20063 70.9706,-3.62695 -1.9852,-410.28434 -52.9598,3.46379 c -4.691,38.886 -32.0151,69.873412 -88.8676,71.861361 l 1.4842,53.12227 69.2574,-4.150011 z"/>
    </g>
  </g>
</svg>